<svg id="Group_1784" data-name="Group 1784" xmlns="http://www.w3.org/2000/svg" width="20" height="18" viewBox="0 0 20 18">
  <g id="Group_664" data-name="Group 664">
    <path id="Path_598" data-name="Path 598" d="M512.94,90.311a2.766,2.766,0,0,1,1.057.244c.992.247,1.966.561,2.955.817a2.51,2.51,0,0,1,1.851,1.65c.034.093.082.181.124.272.006.4.024.8.016,1.2a1.011,1.011,0,0,1-1.807.621q-1.785-2.1-3.564-4.215a3.434,3.434,0,0,0-.632-.591" transform="translate(-500.094 -82.226)" fill="#2e2e2d"/>
    <path id="Path_599" data-name="Path 599" d="M487.449,63.406c-.835-.245-1.677-.464-2.515-.7a.989.989,0,0,1-.775-.9.969.969,0,0,1,.614-1.014c3.1-1.456,6.2-2.918,9.314-4.353a1.985,1.985,0,0,1,2.881,1.793c.008,2.046.016,4.191,0,6.041-.007,1.175-.021,2.231-.048,3.068,0,.015,0,.04,0,.054-.033-.064-.081-.156-.144-.264a5.33,5.33,0,0,0-.714-.967,3.028,3.028,0,0,0-1.137-.683c-1.374-.523-6.323-1.734-7.478-2.073" transform="translate(-478.132 -56.233)" fill="#1d1b17"/>
    <path id="Path_600" data-name="Path 600" d="M536.122,79.453l-.011-7.544-.637,5.725.4,1.275Z" transform="translate(-517.286 -68.193)" fill="#1d1b17"/>
    <path id="Path_601" data-name="Path 601" d="M464.753,81.328a2.766,2.766,0,0,1-1.057-.244c-.991-.247-1.966-.561-2.955-.817a2.51,2.51,0,0,1-1.851-1.65c-.034-.093-.082-.181-.124-.272-.006-.4-.024-.8-.015-1.2a1.011,1.011,0,0,1,1.807-.621q1.786,2.1,3.564,4.215a3.424,3.424,0,0,0,.632.591" transform="translate(-458.748 -71.413)" fill="#1a5526"/>
    <path id="Path_602" data-name="Path 602" d="M468.3,89.073c.835.245,1.678.465,2.515.7a.988.988,0,0,1,.775.9.969.969,0,0,1-.614,1.015c-3.1,1.456-6.2,2.918-9.314,4.353a1.985,1.985,0,0,1-2.881-1.793c-.008-2.046-.015-4.191,0-6.042.007-1.175.021-2.231.048-3.068,0-.015,0-.04,0-.054.033.064.081.156.144.264a5.332,5.332,0,0,0,.714.967A3.031,3.031,0,0,0,460.82,87c1.374.523,6.323,1.734,7.478,2.072" transform="translate(-458.765 -78.247)" fill="#1da15e"/>
    <path id="Path_603" data-name="Path 603" d="M458.809,84.663l.011,7.544.637-5.725-.4-1.275Z" transform="translate(-458.795 -77.924)" fill="#29893f"/>
  </g>
</svg>
