<svg id="Group_1784" data-name="Group 1784" xmlns="http://www.w3.org/2000/svg" width="162.210" height="18" viewBox="0 0 162.210 18">
  <g id="Group_665" data-name="Group 665">
    <path id="Path_604" data-name="Path 604" d="M69.558,18.438h9.951c3.763,0,5.841.475,4.99,3.255-.493,1.611-1.294,2.663-3.877,2.934l-.041.136c2.768.119,2.9,1.255,2.412,2.849-.954,3.119-3.256,3.543-7.272,3.543H65.667Zm2.011,9.937h3.814c1.641,0,2.4-.254,2.717-1.288.322-1.052-.212-1.2-1.854-1.2H72.331Zm1.483-4.85h3.637c1.769,0,2.26-.2,2.571-1.221.233-.763.145-1.051-1.259-1.085H73.758Z" transform="translate(-65.667 -18.336)" fill="#1da15e"/>
    <path id="Path_605" data-name="Path 605" d="M100.154,28.969l-1.6,2.187H93.3l9.573-12.717h7.679l1.868,12.717h-5.152l-.317-2.187Zm5.878-7.988h-.05L102,26.493h4.7Z" transform="translate(-76.703 -18.336)" fill="#1da15e"/>
    <path id="Path_606" data-name="Path 606" d="M138.069,23.355c5.524.271,6.768.746,5.876,3.664-.643,2.1-1.15,4.17-9.485,4.17-4.824,0-8.011-.067-6.735-4.238h4.849c-.4,1.322.261,1.458,2.736,1.458,2.374,0,3.189-.1,3.515-1.17.337-1.1.053-1.085-2.289-1.187l-1.1-.05c-4.605-.221-7.339-.2-6.223-3.85s4.244-3.883,9.195-3.883c4.142,0,7.662.051,6.589,3.561l-.161.526h-4.849c.4-1.306-.41-1.306-2.429-1.306-2.729,0-3.069.374-3.287,1.085-.311,1.017.411,1.052,1.729,1.119Z" transform="translate(-90.34 -18.268)" fill="#1da15e"/>
    <path id="Path_607" data-name="Path 607" d="M197.095,18.438h5.077l-8.083,12.717h-7.3l-.138-7.97h-.2l-5.192,7.97h-7.223l-.2-12.717h5.127l-.27,9.8h.177l6.56-9.8h5.253l.386,9.8h.177Z" transform="translate(-108.869 -18.336)" fill="#1d1d1a"/>
    <path id="Path_608" data-name="Path 608" d="M217.337,26.527l1.1-3.6c1.2-3.917,5.064-4.663,10.191-4.663s8.536.746,7.337,4.663l-1.1,3.6c-1.2,3.916-5.064,4.662-10.19,4.662S216.139,30.443,217.337,26.527Zm12.44-.374.877-2.866c.576-1.882-.3-2.068-2.928-2.068s-3.542.186-4.194,2.068l-.877,2.866c-.505,1.9.3,2.086,2.924,2.086S229.2,28.053,229.777,26.153Z" transform="translate(-126.149 -18.268)" fill="#1d1d1a"/>
    <path id="Path_609" data-name="Path 609" d="M251.657,18.438h9.749c4.354.05,6.308.678,5.338,3.849-.648,2.12-1.027,3.358-4.785,3.918l-.041.136c2.056.051,3.161.814,2.72,2.256l-.783,2.56H258.8l.544-1.781c.341-.95-.068-1.594-1.583-1.594H253.85l-1.032,3.375h-5.051Zm7.011,6.393c2.171,0,2.262-.543,2.7-1.984.348-1.136.017-1.458-1.65-1.458h-3.915l-1.053,3.443Z" transform="translate(-138.398 -18.336)" fill="#1d1d1a"/>
    <path id="Path_610" data-name="Path 610" d="M284.589,28.2h7.906l-.9,2.951H278.635l3.89-12.717h5.051Z" transform="translate(-150.727 -18.336)" fill="#1d1d1a"/>
    <path id="Path_611" data-name="Path 611" d="M306.5,18.438h9.6c5.279,0,7.223,1.322,6.118,4.934l-.814,2.663c-1.064,3.476-3.234,5.121-8.512,5.121h-10.28Zm2.064,9.767h4.42a2.948,2.948,0,0,0,3.214-2.17l.814-2.663c.5-1.644-.176-1.984-1.944-1.984h-4.42Z" transform="translate(-160.301 -18.336)" fill="#1d1d1a"/>
  </g>
</svg>
