<svg width="334" height="52" viewBox="0 0 334 52" fill="none" xmlns="http://www.w3.org/2000/svg">
<path d="M203.552 8.30341L193.217 25.5574H192.907L192.223 8.30341H182.952L171.37 25.5574H171.06L171.537 8.30341H162.484L162.84 30.6934H175.595L184.756 16.661H185.113L185.36 30.6934H198.241L212.512 8.30341H203.552Z" fill="#1D1D1A"/>
<path d="M230.911 22.0034L232.457 16.9591C233.474 13.6459 231.922 13.3191 227.29 13.3191C222.657 13.3191 221.036 13.6459 219.887 16.9591L218.34 22.0034C217.45 25.3453 218.863 25.6778 223.502 25.6778C228.14 25.6778 229.888 25.351 230.917 22.0034M208.954 22.6626L210.897 16.3343C213.012 9.43841 219.835 8.12573 228.888 8.12573C237.94 8.12573 243.958 9.43841 241.843 16.3343L239.9 22.6626C237.785 29.5585 230.962 30.8712 221.91 30.8712C212.857 30.8712 206.839 29.5585 208.954 22.6626Z" fill="#1D1D1A"/>
<path d="M260.288 19.5558C264.121 19.5558 264.282 18.5985 265.058 16.0649C265.673 14.0643 265.087 13.4968 262.144 13.4968H255.235L253.373 19.5558H260.288ZM247.913 8.29773H265.121C272.806 8.38945 276.261 9.49003 274.548 15.0732C273.404 18.8049 272.737 20.9831 266.099 21.9691L266.024 22.2098C269.651 22.3015 271.605 23.6428 270.823 26.1822L269.444 30.6877H260.529L261.489 27.5522C262.092 25.8784 261.368 24.7434 258.695 24.7434H251.787L249.965 30.682H241.05L247.918 8.29199L247.913 8.29773Z" fill="#1D1D1A"/>
<path d="M280.313 8.30341L273.45 30.6934H296.321L297.913 25.5H283.957L289.234 8.30341H280.313Z" fill="#1D1D1A"/>
<path d="M309.374 25.5H317.179C320.478 25.5 322.128 24.0383 322.852 21.6767L324.289 16.9877C325.18 14.093 323.979 13.4968 320.858 13.4968H313.052L309.374 25.5ZM305.73 8.30341H322.674C331.991 8.30341 335.422 10.6307 333.474 16.9934L332.037 21.6824C330.157 27.8044 326.33 30.6992 317.012 30.6992H298.867L305.735 8.30914L305.73 8.30341Z" fill="#1D1D1A"/>
<path d="M59.001 8.30341H76.5662C83.2106 8.30341 86.8776 9.14031 85.3775 14.0356C84.5096 16.8731 83.0899 18.7246 78.5319 19.2003L78.4572 19.4411C83.3428 19.6475 83.5727 21.648 82.7163 24.4568C81.0322 29.9482 76.9685 30.6992 69.8815 30.6992H52.1382L59.0068 8.30914L59.001 8.30341ZM62.5531 25.7981H69.2838C72.1806 25.7981 73.5198 25.351 74.0774 23.5282C74.6464 21.6767 73.7038 21.4072 70.8069 21.4072H63.8981L62.5531 25.7981ZM65.1741 17.2629H71.5943C74.7154 17.2629 75.5833 16.9017 76.1351 15.1133C76.5489 13.7662 76.388 13.2618 73.9107 13.1987H66.4214L65.1741 17.2571V17.2629Z" fill="#1DA15E"/>
<path d="M93.2288 26.8414L90.3952 30.6934H81.124L98.0224 8.30341H111.576L114.875 30.6934H105.782L105.224 26.8414H93.2288ZM103.604 12.7803H103.517L96.482 22.4849H104.776L103.604 12.7803Z" fill="#1DA15E"/>
<path d="M135.239 17.0795C144.993 17.5552 147.189 18.3921 145.614 23.5282C144.476 27.2312 143.585 30.8712 128.871 30.8712C120.352 30.8712 114.731 30.7508 116.978 23.4078H125.537C124.824 25.7351 125.997 25.9758 130.365 25.9758C134.733 25.9758 135.992 25.7981 136.567 23.918C137.165 21.9805 136.664 22.0092 132.526 21.8257L130.595 21.7397C122.468 21.3499 117.639 21.3786 119.611 14.9643C121.582 8.54993 127.1 8.13147 135.843 8.13147C143.154 8.13147 149.367 8.22319 147.47 14.4025L147.189 15.3254H138.63C139.337 13.0268 137.912 13.0268 134.342 13.0268C129.526 13.0268 128.922 13.686 128.537 14.9413C127.991 16.7298 129.261 16.7928 131.589 16.9132L135.233 17.0909L135.239 17.0795Z" fill="#1DA15E"/>
<path d="M39.1024 26.0503C39.1024 26.4687 39.0219 26.9502 38.7632 27.3515C38.1195 28.3431 36.7918 28.624 35.7974 27.982C35.579 27.8387 35.3893 27.6438 35.2514 27.4718C35.2514 27.4718 31.3429 22.8861 28.7334 19.8251C27.4287 18.2946 26.4458 17.1424 26.4458 17.1424C28.9461 17.8761 31.4751 18.6156 33.688 19.2633C33.8719 19.3149 34.0558 19.3722 34.234 19.4238C34.7915 19.613 35.3433 19.8652 35.8606 20.1977C37.8953 21.5161 39.0334 23.6943 39.1024 25.9471V26.0617V26.0503Z" fill="#747474"/>
<path d="M37.1538 0.685245C38.4298 1.51068 39.1196 2.90935 39.1023 4.3252V20.8397C39.1023 20.8397 39.1023 25.884 39.1023 25.9356C39.0276 23.6886 37.8953 21.5104 35.8606 20.1862C35.3433 19.848 34.7973 19.6015 34.234 19.4124C34.0558 19.3608 33.8719 19.3034 33.6879 19.2519C31.475 18.6041 28.946 17.8647 26.4458 17.131C19.8358 15.1935 13.3983 13.3133 13.3983 13.3133C13.1684 13.2445 12.927 13.1643 12.7086 13.021C11.7142 12.3789 11.4326 11.0548 12.0764 10.0631C12.335 9.66188 12.6914 9.4154 13.1282 9.22623L33.0269 0.392897C34.3144 -0.197521 35.8721 -0.140193 37.1481 0.685245H37.1538Z" fill="#1D1D1A"/>
<path d="M0.000488281 12.9464C0.000488281 12.4649 0.0809636 12.0465 0.339613 11.6452C0.983362 10.6536 2.31109 10.3727 3.30545 11.0147C3.52387 11.158 3.71354 11.3529 3.85149 11.5249C3.85149 11.5249 7.75997 16.1106 10.3695 19.1716C11.6742 20.7021 12.6571 21.8543 12.6571 21.8543C10.1568 21.1206 7.62776 20.3811 5.41488 19.7334C5.23095 19.6818 5.04702 19.6245 4.86884 19.5729C4.31131 19.3837 3.75952 19.1315 3.24222 18.799C1.20752 17.4806 0.0694614 15.3024 0.000488281 13.0496V12.935V12.9464Z" fill="#115F37"/>
<path d="M1.94881 38.3058C0.672803 37.4803 -0.0169276 36.0817 0.000315645 34.6658V18.1513C0.000315645 18.1513 0.000315645 13.1069 0.000315645 13.0554C0.0750365 15.3024 1.20735 17.4806 3.24205 18.8048C3.75935 19.143 4.30539 19.3895 4.86867 19.5786C5.04685 19.6302 5.23078 19.6875 5.41471 19.7391C7.62759 20.3869 10.1566 21.1263 12.6569 21.86C19.2668 23.7975 25.7043 25.6777 25.7043 25.6777C25.9342 25.7465 26.1756 25.8267 26.394 25.97C27.3884 26.612 27.67 27.9362 27.0263 28.9278C26.7676 29.3291 26.4688 29.5355 25.9744 29.7647L6.0757 38.5981C4.7882 39.1885 3.23056 39.1312 1.95456 38.3058H1.94881Z" fill="#1DA15E"/>
</svg>
